<?xml version="1.0" encoding="iso-8859-1"?>
<!-- Generator: Adobe Illustrator 19.0.0, SVG Export Plug-In . SVG Version: 6.00 Build 0)  -->
<svg version="1.1" id="Capa_1" xmlns="http://www.w3.org/2000/svg" xmlns:xlink="http://www.w3.org/1999/xlink" x="0px" y="0px"
	 viewBox="0 0 512 512" style="enable-background:new 0 0 512 512;" xml:space="preserve">
<g>
	<g transform="translate(1 1)">
		<path style="fill:#A4C2F7;" d="M502.467,109.933V459.8c-0.014,4.707-3.826,8.52-8.533,8.533h-25.6
			c4.707-0.014,8.52-3.826,8.533-8.533V109.933c-0.014-4.707-3.826-8.52-8.533-8.533h25.6
			C498.641,101.414,502.453,105.226,502.467,109.933z"/>
		<g>
			<path style="fill:#E3E7F2;" d="M476.867,109.933V459.8c-0.014,4.707-3.826,8.52-8.533,8.533h-165.12
				c-7.185,20.467-26.522,34.157-48.213,34.133c-4.317-0.013-8.616-0.558-12.8-1.621c-16.493-4.244-29.779-16.441-35.413-32.512
				H16.067c-4.707-0.014-8.52-3.826-8.533-8.533V109.933c0.014-4.707,3.826-8.52,8.533-8.533h452.267
				C473.041,101.414,476.853,105.226,476.867,109.933z"/>
			<path style="fill:#E3E7F2;" d="M50.2,348.867c-4.707,0.014-8.52,3.826-8.533,8.533v-8.533H50.2z"/>
		</g>
		<path style="fill:#A4C2F7;" d="M468.333,58.733V357.4c-0.014-4.707-3.826-8.52-8.533-8.533h-17.067V58.733
			c-0.014-4.707-3.826-8.52-8.533-8.533h25.6C464.507,50.214,468.32,54.026,468.333,58.733z"/>
		
			<linearGradient id="SVGID_1_" gradientUnits="userSpaceOnUse" x1="-49.8109" y1="651.6652" x2="-48.9448" y2="650.6723" gradientTransform="matrix(401.0667 0 0 -349.8667 20046.002 228024.2813)">
			<stop  offset="0" style="stop-color:#D4E1F4"/>
			<stop  offset="0.1717" style="stop-color:#D4E1F4"/>
			<stop  offset="0.2" style="stop-color:#D4E1F4"/>
			<stop  offset="0.2001" style="stop-color:#DAE4F4"/>
			<stop  offset="0.2007" style="stop-color:#EBEBF4"/>
			<stop  offset="0.2014" style="stop-color:#F6F1F4"/>
			<stop  offset="0.2023" style="stop-color:#FDF4F4"/>
			<stop  offset="0.205" style="stop-color:#FFF5F4"/>
			<stop  offset="0.2522" style="stop-color:#FFF5F4"/>
			<stop  offset="0.26" style="stop-color:#FFF5F4"/>
			<stop  offset="0.26" style="stop-color:#D4E1F4"/>
			<stop  offset="0.3974" style="stop-color:#D4E1F4"/>
			<stop  offset="0.42" style="stop-color:#D4E1F4"/>
			<stop  offset="0.4201" style="stop-color:#DAE4F4"/>
			<stop  offset="0.4207" style="stop-color:#EBEBF4"/>
			<stop  offset="0.4214" style="stop-color:#F6F1F4"/>
			<stop  offset="0.4223" style="stop-color:#FDF4F4"/>
			<stop  offset="0.425" style="stop-color:#FFF5F4"/>
			<stop  offset="0.4894" style="stop-color:#FFF5F4"/>
			<stop  offset="0.5" style="stop-color:#FFF5F4"/>
			<stop  offset="0.5" style="stop-color:#F9F2F4"/>
			<stop  offset="0.5001" style="stop-color:#E8EBF4"/>
			<stop  offset="0.5003" style="stop-color:#DDE5F4"/>
			<stop  offset="0.5005" style="stop-color:#D6E2F4"/>
			<stop  offset="0.501" style="stop-color:#D4E1F4"/>
			<stop  offset="0.7062" style="stop-color:#D4E1F4"/>
			<stop  offset="0.74" style="stop-color:#D4E1F4"/>
			<stop  offset="0.741" style="stop-color:#FFF5F4"/>
			<stop  offset="0.8346" style="stop-color:#FFF5F4"/>
			<stop  offset="0.85" style="stop-color:#FFF5F4"/>
			<stop  offset="0.851" style="stop-color:#D4E1F4"/>
		</linearGradient>
		<path style="fill:url(#SVGID_1_);" d="M442.733,58.733v290.133H306.2c-28.268,0.022-51.178,22.932-51.2,51.2
			c0.053-12.458-4.507-24.495-12.8-33.792c-9.694-11.064-23.69-17.409-38.4-17.408H41.667V58.733
			c0.014-4.707,3.826-8.52,8.533-8.533h384C438.907,50.214,442.72,54.026,442.733,58.733z"/>
		<g>
			<path style="fill:#E3E7F2;" d="M255,400.067V434.2H50.2c-4.707-0.014-8.52-3.826-8.533-8.533V357.4
				c0.014-4.707,3.826-8.52,8.533-8.533h153.6C232.068,348.889,254.978,371.799,255,400.067z"/>
			<path style="fill:#E3E7F2;" d="M468.333,357.4v68.267c-0.014,4.707-3.826,8.52-8.533,8.533H255v-34.133
				c0.022-28.268,22.932-51.178,51.2-51.2h153.6C464.507,348.88,468.32,352.693,468.333,357.4z"/>
		</g>
		<circle style="fill:#A4C2F7;" cx="255" cy="101.4" r="93.867"/>
		<ellipse style="fill:#E3E7F2;" cx="242.2" cy="101.4" rx="81.067" ry="93.867"/>
	</g>
	<path style="fill:#FFFFFF;" d="M17.103,102.4h25.6c-4.707,0.014-8.52,3.826-8.533,8.533V460.8c0.014,4.707,3.826,8.52,8.533,8.533
		h-25.6c-4.707-0.014-8.52-3.826-8.533-8.533V110.933C8.583,106.226,12.396,102.414,17.103,102.4z"/>
	<g>
		<polygon style="fill:#FFFFFF;" points="17.067,110.933 17.067,221.867 17.067,460.8 0,460.8 0,221.867 0,110.933 		"/>
		<g>
			<path style="fill:#428DFF;" d="M8.533,187.733c2.259-0.034,4.422-0.918,6.059-2.475c3.3-3.365,3.3-8.752,0-12.117l-1.279-1.025
				c-0.476-0.324-0.993-0.583-1.538-0.771c-0.484-0.246-1.003-0.417-1.538-0.509c-0.563-0.096-1.133-0.153-1.704-0.171
				c-2.259,0.031-4.423,0.915-6.059,2.475c-3.222,3.397-3.222,8.721,0,12.117c0.815,0.771,1.77,1.379,2.813,1.792
				C6.314,187.488,7.417,187.72,8.533,187.733z"/>
			<path style="fill:#428DFF;" d="M256,162.133c2.263,0.001,4.434-0.898,6.035-2.499c1.6-1.6,2.499-3.771,2.499-6.035V85.333
				c0-4.713-3.821-8.533-8.533-8.533c-4.713,0-8.533,3.82-8.533,8.533V153.6c-0.001,2.263,0.898,4.434,2.499,6.035
				C251.566,161.235,253.737,162.134,256,162.133z"/>
			<path style="fill:#428DFF;" d="M494.933,93.867h-17.067V59.733c-0.011-9.421-7.645-17.056-17.067-17.067H339.002
				C319.837,15.888,288.93,0,256,0c-32.93,0-63.837,15.888-83.002,42.667H51.2c-9.421,0.011-17.056,7.645-17.067,17.067v34.133
				H17.067C7.645,93.877,0.011,101.512,0,110.933v34.133c0,4.713,3.821,8.533,8.533,8.533s8.533-3.821,8.533-8.533v-34.133h17.067
				v315.733c0.011,9.421,7.645,17.056,17.067,17.067h409.6c9.421-0.011,17.056-7.645,17.067-17.067V110.933h17.067V460.8H304.217
				c-0.094,0-0.171,0.05-0.265,0.053c-0.604,0.054-1.201,0.174-1.779,0.359c-1.008,0.09-1.957,0.516-2.693,1.211
				c-0.958,0.465-1.731,1.241-2.192,2.201c-0.396,0.516-0.729,1.078-0.993,1.673c-0.033,0.087-0.106,0.144-0.138,0.232
				c-6.013,17.022-22.105,28.404-40.158,28.404s-34.145-11.382-40.158-28.404c-0.031-0.089-0.104-0.145-0.138-0.232
				c-0.259-0.58-0.583-1.129-0.967-1.635c-0.44-0.939-1.184-1.703-2.111-2.167c-0.416-0.343-0.865-0.645-1.339-0.902
				c-0.446-0.159-0.905-0.28-1.371-0.362c-0.608-0.199-1.237-0.326-1.875-0.379c-0.092-0.003-0.167-0.052-0.258-0.052H17.067
				V213.333c0-4.713-3.821-8.533-8.533-8.533S0,208.621,0,213.333V460.8c0.011,9.421,7.645,17.056,17.067,17.067h185.175
				C212.033,498.7,232.98,512,256,512s43.967-13.3,53.758-34.133h185.175c9.421-0.011,17.056-7.645,17.067-17.067V110.933
				C511.989,101.512,504.355,93.877,494.933,93.867z M460.8,59.733v281.6H307.2c-16.07-0.002-31.458,6.494-42.667,18.01V204.368
				c33.265-2.693,63.115-21.473,79.941-50.295c16.826-28.822,18.504-64.049,4.493-94.34H460.8z M256,17.067
				c47.128,0,85.333,38.205,85.333,85.333S303.128,187.733,256,187.733s-85.333-38.205-85.333-85.333
				C170.721,55.294,208.894,17.121,256,17.067z M51.2,59.733h111.832c-14.01,30.291-12.333,65.517,4.493,94.34
				s46.676,47.602,79.941,50.295v154.975c-11.208-11.516-26.597-18.012-42.667-18.01H51.2V59.733z M51.2,401.067h153.6
				c4.713,0,8.533-3.82,8.533-8.533S209.513,384,204.8,384H51.2v-25.6h153.6c23.553,0.028,42.639,19.114,42.667,42.667v25.6H51.2
				V401.067z M264.533,426.667v-25.6c0.028-23.553,19.114-42.639,42.667-42.667h153.6V384H307.2c-4.713,0-8.533,3.82-8.533,8.533
				s3.82,8.533,8.533,8.533h153.6v25.6H264.533z"/>
			<path style="fill:#428DFF;" d="M341.333,204.8c-0.001,2.263,0.898,4.434,2.499,6.035c1.6,1.6,3.771,2.499,6.035,2.499H435.2
				c4.713,0,8.533-3.821,8.533-8.533s-3.821-8.533-8.533-8.533h-85.333c-2.263-0.001-4.434,0.898-6.035,2.499
				C342.232,200.366,341.333,202.537,341.333,204.8z"/>
			<path style="fill:#428DFF;" d="M435.2,238.933H315.733c-4.713,0-8.533,3.821-8.533,8.533s3.821,8.533,8.533,8.533H435.2
				c4.713,0,8.533-3.82,8.533-8.533S439.913,238.933,435.2,238.933z"/>
			<path style="fill:#428DFF;" d="M435.2,281.6H315.733c-4.713,0-8.533,3.821-8.533,8.533c0,4.713,3.821,8.533,8.533,8.533H435.2
				c4.713,0,8.533-3.821,8.533-8.533C443.733,285.421,439.913,281.6,435.2,281.6z"/>
			<path style="fill:#428DFF;" d="M76.8,213.333h85.333c4.713,0,8.533-3.821,8.533-8.533s-3.821-8.533-8.533-8.533H76.8
				c-4.713,0-8.533,3.82-8.533,8.533S72.087,213.333,76.8,213.333z"/>
			<path style="fill:#428DFF;" d="M76.8,256h119.467c4.713,0,8.533-3.82,8.533-8.533s-3.821-8.533-8.533-8.533H76.8
				c-4.713,0-8.533,3.821-8.533,8.533S72.087,256,76.8,256z"/>
			<path style="fill:#428DFF;" d="M76.8,298.667h119.467c4.713,0,8.533-3.821,8.533-8.533c0-4.713-3.821-8.533-8.533-8.533H76.8
				c-4.713,0-8.533,3.821-8.533,8.533C68.267,294.846,72.087,298.667,76.8,298.667z"/>
			<path style="fill:#428DFF;" d="M256,59.733c2.263,0.001,4.434-0.898,6.035-2.499c1.6-1.6,2.499-3.771,2.499-6.035v-8.533
				c0-4.713-3.821-8.533-8.533-8.533c-4.713,0-8.533,3.821-8.533,8.533V51.2c-0.001,2.263,0.898,4.434,2.499,6.035
				C251.566,58.835,253.737,59.734,256,59.733z"/>
		</g>
	</g>
</g>
<g>
</g>
<g>
</g>
<g>
</g>
<g>
</g>
<g>
</g>
<g>
</g>
<g>
</g>
<g>
</g>
<g>
</g>
<g>
</g>
<g>
</g>
<g>
</g>
<g>
</g>
<g>
</g>
<g>
</g>
</svg>
