<?xml version="1.0"?>
<svg xmlns="http://www.w3.org/2000/svg" xmlns:xlink="http://www.w3.org/1999/xlink" version="1.1" id="Capa_1" x="0px" y="0px" width="512px" height="512px" viewBox="0 0 549.875 549.876" style="enable-background:new 0 0 549.875 549.876;" xml:space="preserve"><g><g>
	<g>
		<path d="M340.535,104.42c13.881-13.874,24.125-29.07,30.735-45.594c6.389-16.524,9.584-31.5,9.584-44.945    c0-0.875-0.056-1.989-0.166-3.305c-0.116-1.316-0.165-2.411-0.165-3.305c-0.22-0.661-0.495-1.873-0.826-3.642    c-0.33-1.756-0.605-2.968-0.826-3.629c-38.776,9.033-66.311,25.337-82.613,48.911c-16.524,23.789-25.117,52.1-25.778,84.927    c14.755-1.328,26.211-3.188,34.37-5.612C316.747,124.249,328.638,116.323,340.535,104.42z" data-original="#000000" class="active-path" data-old_color="#000000" fill="#FFFFFF"/>
		<path d="M452.892,359.868c-15.202-21.799-22.803-46.365-22.803-73.696c0-24.891,7.154-47.688,21.48-68.404    c7.712-11.23,20.27-24.229,37.675-38.997c-11.456-14.094-22.913-25.104-34.369-33.048c-20.711-14.303-44.175-21.481-70.387-21.481    c-15.643,0-34.7,3.758-57.173,11.243c-21.592,7.497-37.344,11.23-47.253,11.23c-7.49,0-22.692-3.305-45.606-9.914    c-23.133-6.61-42.625-9.915-58.489-9.915c-37.895,0-69.18,15.863-93.85,47.595c-24.896,32.167-37.344,73.36-37.344,123.587    c0,53.312,16.193,108.716,48.581,166.226c32.822,57.057,65.979,85.582,99.468,85.582c11.236,0,25.771-3.745,43.617-11.23    c17.846-7.271,33.482-10.905,46.922-10.905c14.321,0,30.949,3.525,49.902,10.569c20.043,7.05,35.466,10.569,46.262,10.569    c28.194,0,56.506-21.586,84.927-64.762c18.507-27.534,32.057-55.08,40.649-82.614C485.494,395.561,468.094,381.68,452.892,359.868    z" data-original="#000000" class="active-path" data-old_color="#000000" fill="#FFFFFF"/>
	</g>
</g></g> </svg>
