<?xml version="1.0" encoding="iso-8859-1"?>
<!-- Generator: Adobe Illustrator 24.1.0, SVG Export Plug-In . SVG Version: 6.00 Build 0)  -->
<svg version="1.1" id="_x31_111_xA0_&#x418;&#x437;&#x43E;&#x431;&#x440;&#x430;&#x436;&#x435;&#x43D;&#x438;&#x435;_1_"
	 xmlns="http://www.w3.org/2000/svg" xmlns:xlink="http://www.w3.org/1999/xlink" x="0px" y="0px" viewBox="0 0 236.353 116.069"
	 style="enable-background:new 0 0 236.353 116.069;" xml:space="preserve">
<g>
	<path style="fill:#FFFFFF;" d="M102.089,54.202c0,5.385,0.093,10.773-0.033,16.155c-0.083,3.549-2.008,6.327-4.459,8.724
		c-4.109,4.019-9.164,6.456-14.495,8.358c-8.137,2.903-16.568,4.312-25.174,4.817c-11.683,0.686-23.209-0.211-34.502-3.403
		c-5.981-1.691-11.706-3.981-16.672-7.828c-3.287-2.547-5.945-5.559-6.634-9.867c-0.057-0.353-0.095-0.713-0.096-1.07
		c-0.006-5.226-0.004-10.452,0.064-15.71c0.628,2.274,1.709,4.292,3.244,6.071c3.345,3.874,7.665,6.32,12.281,8.298
		c7.583,3.25,15.564,4.897,23.733,5.769c7.171,0.765,14.354,0.841,21.527,0.192c10.07-0.912,19.887-2.894,28.986-7.548
		c3.615-1.849,6.928-4.116,9.457-7.369C100.618,58.118,101.576,56.274,102.089,54.202z"/>
	<path style="fill:#FFFFFF;" d="M102.096,30.723c0,5.307,0.074,10.615-0.026,15.919c-0.067,3.558-1.941,6.345-4.378,8.765
		c-4.174,4.145-9.353,6.608-14.803,8.535c-8.995,3.179-18.321,4.54-27.827,4.875c-9.304,0.328-18.517-0.371-27.589-2.483
		c-7.465-1.738-14.662-4.196-20.819-8.963c-3.25-2.517-5.883-5.526-6.53-9.798C0,46.751,0.015,45.903,0.014,45.067
		c-0.01-4.788-0.005-9.576-0.005-14.702c1.81,6.778,6.72,10.306,12.206,13.194c6.956,3.662,14.485,5.548,22.208,6.757
		c7.048,1.103,14.145,1.462,21.259,1.149c10.502-0.462,20.799-2.067,30.563-6.186c4.93-2.08,9.536-4.668,12.97-8.932
		C100.555,34.684,101.499,32.824,102.096,30.723z"/>
	<path style="fill:#FFFFFF;" d="M0.009,77.921c1.414,5.161,5.062,8.458,9.366,11.163c6.093,3.829,12.851,5.94,19.83,7.432
		c8.873,1.897,17.862,2.488,26.902,2.092c9.039-0.397,17.936-1.761,26.516-4.761c4.192-1.466,8.22-3.289,11.839-5.911
		c3.558-2.578,6.477-5.639,7.616-10.061c0,5.452,0.127,10.907-0.047,16.353c-0.107,3.345-2.005,5.986-4.307,8.303
		c-3.176,3.196-7.029,5.366-11.122,7.114c-7.621,3.253-15.635,4.94-23.848,5.803c-7.168,0.753-14.35,0.83-21.519,0.187
		c-9.908-0.888-19.573-2.836-28.56-7.333c-3.814-1.908-7.317-4.253-9.955-7.688c-1.72-2.24-2.739-4.731-2.721-7.615
		C0.032,87.973,0.009,82.947,0.009,77.921z"/>
	<path style="fill:#FFFFFF;" d="M51.03,0.001c10.76,0.022,21.335,1.293,31.548,4.841c5.539,1.924,10.792,4.405,15.057,8.57
		c2.057,2.009,3.658,4.322,4.242,7.204c0.717,3.542-0.422,6.608-2.555,9.367c-3.254,4.208-7.756,6.704-12.499,8.777
		c-7.467,3.264-15.338,4.978-23.422,5.85c-5.41,0.583-10.829,0.835-16.258,0.621C36.451,44.81,25.97,43.25,16.02,39.077
		c-4.254-1.784-8.294-3.942-11.594-7.24c-2.089-2.088-3.69-4.469-4.213-7.473c-0.598-3.439,0.522-6.367,2.574-9.016
		c3.253-4.199,7.712-6.758,12.465-8.831c7.334-3.199,15.064-4.887,22.991-5.794C42.494,0.236,46.752-0.02,51.03,0.001z
		 M50.794,39.294c7.391-0.049,14.486-0.729,21.369-2.885c4.672-1.464,9.167-3.32,12.881-6.647c4.645-4.161,4.753-9.761,0.293-14.124
		c-0.744-0.728-1.55-1.378-2.408-1.968c-2.517-1.732-5.265-3.004-8.118-4.056c-6.352-2.341-12.945-3.377-19.686-3.675
		c-8.311-0.368-16.525,0.178-24.529,2.579c-4.918,1.475-9.654,3.392-13.568,6.864c-4.515,4.005-4.682,9.593-0.443,13.873
		c2.818,2.845,6.336,4.548,9.998,5.976C34.435,38.291,42.651,39.223,50.794,39.294z"/>
	<path style="fill:#FFFFFF;" d="M161.512,105.387c-2.286,0-4.558-0.034-6.827,0.019c-0.755,0.018-0.817-0.507-1-0.951
		c-1.637-3.99-3.284-7.976-4.868-11.987c-0.357-0.905-0.829-1.228-1.82-1.195c-2.441,0.082-2.442,0.026-2.442,2.423
		c0,3.591-0.019,7.182,0.016,10.773c0.007,0.707-0.123,0.971-0.901,0.939c-1.635-0.068-3.276-0.052-4.912-0.006
		c-0.685,0.019-0.955-0.089-0.953-0.884c0.03-12.369,0.025-24.739,0.008-37.108c-0.001-0.674,0.077-0.998,0.886-0.975
		c3.99,0.114,7.984-0.122,11.975,0.146c4.968,0.334,8.613,3.782,9.237,8.691c0.329,2.59,0.363,5.149-0.238,7.706
		c-0.626,2.662-1.954,4.861-4.242,6.393c-0.625,0.419-0.439,0.763-0.225,1.252c1.985,4.533,3.956,9.072,5.934,13.608
		C161.295,104.585,161.538,104.908,161.512,105.387z M144.554,78.82c0,0.757-0.008,1.514,0.002,2.271
		c0.013,1.03-0.358,2.408,0.162,2.998c0.606,0.687,2.018,0.173,3.079,0.224c3.772,0.179,5.686-1.852,5.777-5.52
		c0.068-2.723-0.551-4.4-3.245-5.107c-1.708-0.448-3.475-0.347-5.226-0.348c-0.641,0-0.546,0.432-0.547,0.82
		C144.553,75.712,144.555,77.266,144.554,78.82z"/>
	<path style="fill:#FFFFFF;" d="M189.899,23.322c0.824-0.746,1.636-1.48,2.447-2.216c3.029-2.75,7.124-2.031,8.994,1.581
		c0.179,0.346,0.348,0.698,0.555,1.114c0.848-1.01,1.63-1.956,2.547-2.783c2.998-2.704,7.257-1.828,8.888,1.851
		c0.799,1.801,1.188,3.713,1.204,5.666c0.044,5.663,0.001,11.328,0.036,16.991c0.005,0.777-0.188,1.02-0.978,0.98
		c-1.354-0.068-2.717-0.063-4.071-0.001c-0.766,0.035-0.997-0.167-0.991-0.967c0.04-5.025,0.014-10.051,0.027-15.077
		c0.002-0.842-0.057-1.669-0.263-2.483c-0.434-1.713-2.033-2.391-3.508-1.41c-1.388,0.922-2.332,2.004-2.271,3.956
		c0.156,4.981,0.028,9.97,0.074,14.956c0.008,0.859-0.228,1.072-1.055,1.028c-1.354-0.073-2.717-0.068-4.071-0.001
		c-0.753,0.037-0.921-0.189-0.916-0.922c0.035-5.025,0.012-10.051,0.024-15.077c0.002-0.841-0.059-1.669-0.259-2.484
		c-0.438-1.784-2.046-2.454-3.578-1.42c-1.317,0.889-2.219,1.933-2.168,3.788c0.137,5.022,0.025,10.05,0.068,15.076
		c0.007,0.842-0.206,1.084-1.046,1.04c-1.394-0.074-2.795-0.039-4.192-0.011c-0.562,0.011-0.837-0.057-0.834-0.753
		c0.027-8.296,0.024-16.593,0.005-24.889c-0.001-0.584,0.172-0.772,0.741-0.723c0.515,0.045,1.037,0.009,1.557,0.009
		c2.813,0,2.813,0,3.003,2.855C189.875,23.136,189.894,23.274,189.899,23.322z"/>
	<path style="fill:#FFFFFF;" d="M165.974,85.871c0-6.103,0.019-12.205-0.021-18.308c-0.006-0.895,0.225-1.139,1.128-1.132
		c5.51,0.043,11.021,0.043,16.532,0c0.896-0.007,1.171,0.221,1.134,1.128c-0.073,1.792-0.052,3.59-0.006,5.383
		c0.018,0.69-0.204,0.869-0.877,0.863c-3.354-0.032-6.709,0.01-10.063-0.033c-0.805-0.01-1.113,0.154-1.082,1.03
		c0.069,1.952,0.069,3.91,0,5.862c-0.031,0.877,0.279,1.043,1.083,1.029c2.755-0.048,5.511,0.004,8.266-0.034
		c0.677-0.009,0.874,0.178,0.858,0.856c-0.046,1.874-0.06,3.75,0.005,5.623c0.028,0.806-0.3,0.896-0.976,0.888
		c-2.715-0.032-5.431,0.015-8.146-0.031c-0.798-0.014-1.115,0.143-1.089,1.026c0.065,2.272,0.061,4.547,0.002,6.819
		c-0.023,0.861,0.155,1.159,1.097,1.141c3.473-0.065,6.948,0.002,10.422-0.046c0.813-0.011,1.005,0.238,0.983,1.004
		c-0.052,1.833-0.045,3.67-0.002,5.503c0.016,0.69-0.107,0.969-0.897,0.964c-5.83-0.036-11.66-0.039-17.49,0.002
		c-0.834,0.006-0.87-0.346-0.868-0.991C165.981,98.235,165.974,92.053,165.974,85.871z"/>
	<path style="fill:#FFFFFF;" d="M110.499,85.889c0-6.1,0.025-12.201-0.026-18.301c-0.008-0.979,0.293-1.181,1.199-1.153
		c3.628,0.11,7.262-0.136,10.888,0.133c5.194,0.386,8.4,2.998,9.584,8.059c0.876,3.743,0.796,7.512-0.797,11.096
		c-1.895,4.265-5.359,6.212-9.917,6.396c-1.076,0.043-2.158,0.053-3.232-0.009c-0.76-0.044-1.008,0.156-0.999,0.964
		c0.046,3.787-0.004,7.576,0.041,11.363c0.01,0.798-0.221,0.997-0.989,0.968c-1.595-0.059-3.195-0.062-4.789,0.001
		c-0.781,0.031-0.986-0.192-0.982-0.976C110.514,98.249,110.499,92.069,110.499,85.889z M117.22,79.23c0,1.036,0,2.072,0,3.107
		c0,2.906,0,2.906,2.867,2.898c3.682-0.011,5.481-1.48,5.908-5.122c0.387-3.303-0.55-5.677-3.326-6.4
		c-1.636-0.426-3.309-0.372-4.978-0.374c-0.595-0.001-0.466,0.421-0.467,0.752C117.215,75.804,117.22,77.517,117.22,79.23z"/>
	<path style="fill:#FFFFFF;" d="M232.013,76.416c-1.882-1.861-3.817-3.245-6.488-3.114c-1.722,0.084-2.911,0.918-3.387,2.472
		c-0.461,1.507-0.005,2.858,1.397,3.848c2.048,1.447,4.318,2.515,6.548,3.632c5.138,2.574,6.775,7.115,6.139,12.419
		c-0.614,5.123-3.219,8.771-8.401,10.047c-4.463,1.099-8.388-0.319-11.842-3.173c-2.197-1.815-2.175-1.845-0.652-4.237
		c0.683-1.073,1.41-2.119,2.047-3.219c0.352-0.608,0.593-0.563,1.025-0.1c1.097,1.175,2.39,2.084,3.839,2.796
		c1.304,0.641,2.676,0.789,4.07,0.621c1.513-0.182,2.539-1.04,2.977-2.538c0.435-1.484,0.018-3.043-1.216-3.966
		c-2.105-1.574-4.472-2.733-6.8-3.913c-7.43-3.769-7.608-14.157-3.043-18.997c4.035-4.278,10.537-4.369,15.351-0.191
		c2.059,1.788,2.06,1.788,0.632,4.088C233.499,74.033,232.787,75.174,232.013,76.416z"/>
	<path style="fill:#FFFFFF;" d="M207.307,76.393c-1.856-1.765-3.726-3.195-6.355-3.095c-1.819,0.069-3.096,0.913-3.549,2.449
		c-0.462,1.566,0.065,2.99,1.592,4.01c2.182,1.457,4.59,2.518,6.877,3.79c2.858,1.59,4.776,3.881,5.442,7.141
		c1.116,5.464-0.654,11.178-5.129,13.827c-4.064,2.406-9.806,1.94-14.003-1.228c-3.218-2.428-3.219-2.429-1.05-5.798
		c0.641-0.996,1.288-1.987,1.958-3.022c1.703,1.65,3.426,3.164,5.747,3.79c1.032,0.278,2.067,0.282,3.076,0.087
		c1.554-0.299,2.532-1.393,2.757-2.925c0.262-1.778-0.453-3.132-1.973-4.013c-2.232-1.295-4.536-2.468-6.753-3.787
		c-7.074-4.211-7.422-15.568-0.643-20.157c4.129-2.795,9.812-2.151,13.807,1.565c1.758,1.635,1.76,1.637,0.524,3.638
		C208.884,73.877,208.124,75.083,207.307,76.393z"/>
	<path style="fill:#FFFFFF;" d="M145.325,23.506c1.144-1.022,2.01-2.121,3.157-2.919c3.217-2.239,7.224-1.113,8.692,2.483
		c0.635,1.554,1.009,3.197,1.026,4.865c0.058,5.904,0.029,11.808,0.067,17.712c0.004,0.68-0.183,0.88-0.859,0.856
		c-1.396-0.051-2.797-0.061-4.193,0.003c-0.762,0.035-0.925-0.222-0.919-0.943c0.033-4.428,0.06-8.857-0.009-13.284
		c-0.022-1.418,0.099-2.863-0.302-4.266c-0.481-1.683-1.789-2.325-3.412-1.648c-1.552,0.648-2.578,2.181-2.578,3.85
		c0,5.107-0.019,10.213,0.02,15.319c0.006,0.793-0.213,1.005-0.987,0.972c-1.435-0.062-2.876-0.044-4.313-0.005
		c-0.577,0.016-0.735-0.157-0.734-0.732c0.018-8.298,0.017-16.596,0.001-24.894c-0.001-0.557,0.126-0.769,0.721-0.746
		c1.156,0.046,2.317,0.046,3.474,0.001c0.635-0.025,0.83,0.226,0.863,0.82C145.083,21.76,145.215,22.566,145.325,23.506z"/>
	<path style="fill:#FFFFFF;" d="M230.768,43.834c-0.463,0.442-0.905,0.89-1.374,1.308c-4.094,3.651-9.125,2.02-10.303-3.336
		c-1.305-5.934,1.345-10.055,7.465-11.577c0.884-0.22,1.783-0.416,2.686-0.506c0.778-0.077,0.989-0.38,0.884-1.136
		c-0.297-2.14-1.881-3.275-4-2.829c-1.436,0.302-2.656,1.036-3.82,1.873c-0.476,0.342-0.722,0.469-0.976-0.24
		c-0.468-1.301-1.033-2.569-1.59-3.836c-0.161-0.366-0.262-0.648,0.124-0.927c3.123-2.257,6.476-3.817,10.438-2.885
		c3.105,0.73,4.574,3.084,5.316,5.979c0.376,1.467,0.544,2.967,0.541,4.487c-0.009,5.105-0.02,10.21,0.015,15.315
		c0.005,0.777-0.187,1.045-0.979,0.98c-0.873-0.071-1.772-0.124-2.63,0.01c-1.18,0.183-1.399-0.471-1.483-1.37
		C231.042,44.717,231.138,44.26,230.768,43.834z M230.216,36.877c0-0.895-0.008-1.493,0.003-2.091
		c0.006-0.332-0.088-0.49-0.468-0.505c-1.668-0.067-4.339,1.56-4.944,3.043c-0.484,1.186-0.221,2.701,0.573,3.305
		c0.926,0.703,2.4,0.475,3.514-0.353C230.197,39.307,230.415,38.04,230.216,36.877z"/>
	<path style="fill:#FFFFFF;" d="M174.09,35.513c-1.756,0-3.512-0.003-5.268,0.003c-0.379,0.001-0.812-0.118-0.743,0.573
		c0.25,2.509,2.004,4.582,4.379,5.037c1.671,0.321,3.152-0.265,4.489-1.186c0.608-0.419,0.874-0.468,1.142,0.301
		c0.364,1.044,0.775,2.082,1.28,3.064c0.361,0.703,0.127,1.067-0.41,1.489c-5.319,4.172-12.312,2.674-15.054-3.483
		c-2.578-5.791-2.405-11.659,0.747-17.261c1.337-2.376,3.34-4.007,6.148-4.465c3.453-0.562,6.759,1.354,8.243,4.887
		c1.418,3.376,1.611,6.908,1.247,10.511c-0.067,0.663-0.443,0.527-0.813,0.528C177.682,35.517,175.886,35.513,174.09,35.513z
		 M171.665,30.438c0.598,0,1.197,0,1.795,0c2.118,0,2.197-0.107,1.626-2.204c-0.031-0.115-0.066-0.228-0.096-0.344
		c-0.319-1.258-1.055-2.156-2.351-2.414c-1.376-0.274-2.487,0.274-3.357,1.347c-0.698,0.861-0.941,1.907-1.208,2.942
		c-0.131,0.51,0.051,0.705,0.6,0.684C169.669,30.409,170.668,30.438,171.665,30.438z"/>
	<path style="fill:#FFFFFF;" d="M114.586,33.313c-0.061,1.69,0.168,3.328,0.938,4.854c1.446,2.866,3.814,3.443,6.325,1.456
		c0.785-0.621,1.087-0.591,1.426,0.349c0.334,0.927,0.723,1.859,1.252,2.684c0.715,1.114,0.347,1.761-0.58,2.519
		c-3.938,3.22-9.94,2.342-12.9-1.991c-2.274-3.329-2.81-7.114-2.639-11.026c0.124-2.85,0.806-5.573,2.369-8.009
		c2.412-3.759,6.863-5.539,10.586-4.254c0.298,0.103,0.599,0.211,0.878,0.355c2.662,1.372,2.798,1.814,1.363,4.367
		c-0.117,0.208-0.242,0.411-0.36,0.618c-0.354,0.62-0.565,1.499-1.099,1.791c-0.555,0.304-1.025-0.626-1.608-0.904
		c-1.541-0.735-3.445-0.134-4.549,1.51C114.831,29.352,114.531,31.291,114.586,33.313z"/>
	<path style="fill:#FFFFFF;" d="M134.719,33.45c0,4.024-0.02,8.048,0.018,12.072c0.007,0.765-0.17,1.026-0.97,0.986
		c-1.393-0.07-2.792-0.05-4.187-0.006c-0.645,0.021-0.881-0.121-0.879-0.831c0.026-8.247,0.023-16.494,0.004-24.741
		c-0.001-0.611,0.142-0.824,0.786-0.803c1.474,0.048,2.953,0.059,4.426-0.003c0.741-0.031,0.818,0.276,0.814,0.896
		C134.708,25.163,134.719,29.306,134.719,33.45z"/>
	<path style="fill:#FFFFFF;" d="M128.238,12.078c0.009-2.599,1.586-4.151,3.972-3.908c0.119,0.012,0.241,0.007,0.356,0.034
		c1.713,0.394,2.919,2.508,2.591,4.537c-0.374,2.317-1.69,3.582-3.624,3.486c-1.915-0.096-3.262-1.645-3.295-3.79
		C128.236,12.317,128.238,12.197,128.238,12.078z"/>
	<path style="fill:#FFFFFF;" d="M38.54,25.407c2.938-0.058,5.647,0.331,8.198,1.472c1.551,0.694,3.189,1.559,3.219,3.483
		c0.03,1.939-1.576,2.879-3.15,3.515c-5.368,2.171-10.778,2.144-16.171,0.043c-0.82-0.32-1.553-0.81-2.186-1.432
		c-1.339-1.315-1.349-2.876,0.008-4.18c1.152-1.106,2.604-1.681,4.102-2.115C34.56,25.614,36.606,25.313,38.54,25.407z"/>
	<path style="fill:#FFFFFF;" d="M51.714,17.83c-3.623-0.002-6.46-0.348-9.082-1.662c-1.402-0.702-2.852-1.52-2.846-3.35
		c0.006-1.826,1.437-2.697,2.857-3.35c3.847-1.768,7.902-2.041,12.045-1.409c1.659,0.253,3.279,0.651,4.785,1.424
		c0.248,0.127,0.496,0.256,0.73,0.405c2.794,1.785,2.81,4.132-0.021,5.846C57.363,17.441,54.207,17.814,51.714,17.83z"/>
	<path style="fill:#FFFFFF;" d="M71.776,24.726c-2.759,0.043-5.266-0.317-7.68-1.239c-0.9-0.344-1.737-0.8-2.473-1.423
		c-1.78-1.506-1.771-3.223,0.036-4.721c0.996-0.826,2.157-1.37,3.389-1.719c4.562-1.295,9.116-1.304,13.644,0.188
		c0.799,0.263,1.552,0.629,2.253,1.087c2.547,1.664,2.564,3.903,0.042,5.593c-1.62,1.086-3.461,1.589-5.35,1.934
		C74.302,24.669,72.95,24.769,71.776,24.726z"/>
	<path style="fill:#FFFFFF;" d="M63.908,25.394c2.947-0.028,5.81,0.386,8.46,1.74c1.367,0.699,2.739,1.552,2.718,3.319
		c-0.02,1.703-1.354,2.555-2.688,3.217c-3.345,1.66-6.937,1.975-10.599,1.699c-1.708-0.129-3.403-0.408-5.008-1.045
		c-0.737-0.293-1.481-0.602-2.152-1.017c-2.769-1.71-2.797-4.053-0.031-5.762C57.451,25.787,60.646,25.41,63.908,25.394z"/>
	<path style="fill:#FFFFFF;" d="M30.715,24.728c-2.852,0.03-5.402-0.344-7.841-1.332c-0.741-0.3-1.445-0.676-2.078-1.171
		c-1.974-1.543-1.999-3.441-0.022-4.982c1.616-1.26,3.533-1.841,5.513-2.171c3.873-0.645,7.711-0.549,11.461,0.759
		c1.102,0.385,2.132,0.902,2.986,1.713c1.556,1.476,1.513,3.095-0.156,4.498c-1.409,1.184-3.112,1.753-4.872,2.162
		C33.99,24.603,32.246,24.782,30.715,24.728z"/>
	<path style="fill:#FFFFFF;" d="M50.985,24.739c-1.336,0.025-2.637-0.168-3.817-0.817c-1.407-0.774-1.465-2.01-0.042-2.704
		c2.581-1.259,5.24-1.212,7.855-0.033c0.547,0.246,1.056,0.661,1.069,1.335c0.014,0.736-0.552,1.126-1.122,1.426
		C53.698,24.594,52.36,24.777,50.985,24.739z"/>
</g>
</svg>
