<?xml version="1.0" encoding="iso-8859-1"?>
<!-- Generator: Adobe Illustrator 19.0.0, SVG Export Plug-In . SVG Version: 6.00 Build 0)  -->
<svg version="1.1" id="Layer_1" xmlns="http://www.w3.org/2000/svg" xmlns:xlink="http://www.w3.org/1999/xlink" x="0px" y="0px"
	 viewBox="0 0 511.985 511.985" style="enable-background:new 0 0 511.985 511.985;" xml:space="preserve">
<path style="fill:#A0D468;" d="M438.878,386.347l-1.827-0.531c-26.469-7.109-35.406-13.922-47.188-18.422
	c-41.811-15.921-52.686-27.405-55.467-32.811c-0.094-0.203-0.172-0.406-0.266-0.609l-0.344-48.546l-77.793-1.124l-77.795,1.125
	l-0.344,48.546c-0.094,0.203-0.172,0.406-0.266,0.609c-2.781,5.405-13.655,16.89-55.451,32.811
	c-11.781,4.5-20.734,11.312-47.202,18.422l-1.828,0.531c-24.093,7.953-40.295,30.296-40.295,55.514v70.123h223.181h223.181v-70.123
	C479.174,416.643,462.971,394.301,438.878,386.347z"/>
<path style="fill:#EAC6BB;" d="M255.993,42.693c-75.967,0-137.543,58.96-137.543,148.34c0,89.364,85.2,171.611,137.543,171.611
	c52.342,0,137.558-82.247,137.558-171.611C393.551,101.653,331.959,42.693,255.993,42.693z"/>
<path style="fill:#656D78;" d="M393.457,185.4c0.047,1.867,0.094,3.734,0.094,5.633c0,7.156-0.578,14.265-1.609,21.288
	c4.641,6.844,6.047,15.695,3.578,24.844c-2.953,10.819-11.202,20.624-23.218,27.593c-15.374,8.89-36.78,13.249-61.873,12.577
	l-0.594,21.312c1.969,0.062,3.875,0.078,5.766,0.078c62.732,0,93.044-28.592,100.497-55.967
	C422.347,219.766,413.254,196.861,393.457,185.4z"/>
<g>
	<path style="fill:#DA4453;" d="M301.867,15.975L265.226,121.66c113.981-15.336,136.449,65.24,136.449,65.24
		C447.065,15.35,301.867,15.975,301.867,15.975z"/>
	<path style="fill:#DA4453;" d="M401.957,227.595l-10.531-37.788c-0.156-0.484-4.687-15.359-18.812-29.897
		c-19.03-19.594-45.843-29.522-79.716-29.522c-8.312,0-17.156,0.617-26.25,1.844l-17.187,2.312l44.812-129.2l7.625-0.039
		c2.499,0,61.873,0.516,96.059,44.921c25.156,32.663,29.875,79.561,14.031,139.41L401.957,227.595z M292.898,109.051
		c50.311,0,79.919,20.078,95.902,36.921c3.25,3.422,6.078,6.859,8.531,10.188c6.219-39.585,0.781-70.764-16.28-92.919
		c-21.452-27.882-56.562-34.522-71.764-36.108l-28.546,82.294C284.883,109.176,288.93,109.051,292.898,109.051z"/>
</g>
<path style="fill:#ED5564;" d="M371.958,26.483C370.646,25.397,338.959,0,275.398,0c-22.327,0-46.123,3.163-70.717,9.405
	c-32.608,8.266-58.342,26.32-76.481,53.663c-14.828,22.335-24.594,51.006-29.046,85.2c-7.578,58.357,2.093,120.778,8.53,152.784
	l11.469,57.03l9.516-57.405c0.062-0.406,7.343-43.076,32.64-84.896c14.593-24.108,32.249-43.257,52.498-56.912
	c25.108-16.922,54.498-25.499,87.357-25.499c10.03,0,20.545,0.797,31.264,2.383l8.75,1.289l36.53-105.856L371.958,26.483z"/>
<path style="fill:#434A54;" d="M289.305,260.672c-0.438,0-0.891,0.008-1.344,0.023c-18.891,0.57-33.843,13.265-33.374,28.327
	c0.453,14.718,15.421,26.28,33.718,26.28c0.438,0,0.875,0,1.328-0.031c18.89-0.562,33.842-13.25,33.389-28.327
	C322.568,272.225,307.6,260.672,289.305,260.672z"/>
<g>
</g>
<g>
</g>
<g>
</g>
<g>
</g>
<g>
</g>
<g>
</g>
<g>
</g>
<g>
</g>
<g>
</g>
<g>
</g>
<g>
</g>
<g>
</g>
<g>
</g>
<g>
</g>
<g>
</g>
</svg>
