<?xml version="1.0" encoding="UTF-8"?>
<!-- Generator: Adobe Illustrator 21.0.0, SVG Export Plug-In . SVG Version: 6.00 Build 0)  -->
<svg xmlns="http://www.w3.org/2000/svg" xmlns:xlink="http://www.w3.org/1999/xlink" version="1.1" id="Layer_1" x="0px" y="0px" viewBox="0 0 256 256" style="enable-background:new 0 0 256 256;" xml:space="preserve" width="512px" height="512px">
<style type="text/css">
	.st0{fill:#6DCC6D;}
	.st1{fill:#F9D0B4;}
	.st2{fill:#55ACD5;}
	.st3{fill:#E9E9EA;}
	.st4{fill:#FFCD29;}
	.st5{fill:#EA4647;}
	.st6{fill:#231F20;}
</style>
<g id="Layer_19">
	<path class="st0" d="M193,24.5H63c-17.5,0.1-31.7,14.2-31.8,31.8v130.1c0.1,17.5,14.2,31.7,31.8,31.8h33.6c3.9,0,7.6,2,9.7,5.2   l19,28.7c1,1.5,3.1,1.9,4.6,0.9c0.4-0.2,0.7-0.6,0.9-0.9l19-28.7c2.2-3.3,5.8-5.2,9.7-5.2H193c17.5-0.1,31.7-14.2,31.8-31.8V56.3   C224.7,38.7,210.5,24.6,193,24.5z"/>
	<path class="st1" d="M103.8,90H91.7v73.6h12.1c1.4,0,2.6-1.2,2.6-2.6l0,0V92.6C106.4,91.2,105.3,90,103.8,90   C103.8,90,103.8,90,103.8,90z"/>
	<path class="st1" d="M197.5,121.1c0-4.7-3.8-8.5-8.5-8.5l0,0c4.7,0,8.5-3.8,8.5-8.5s-3.8-8.5-8.5-8.5h-25.2   c4.1-12.2,10.2-22.7,8.6-31.1c-1.9-9.6-13.9-12.8-15.7-3.7c-1.7,8.9-15.3,25.9-15.3,25.9c-4.3,4.3-4,9.2-35,9.2v61.9H122   c4.2,0,8.3,0.7,12.3,1.9l6.5,2.1c3.6,1.2,7.4,1.8,11.2,1.8h37c4.7,0,8.5-3.8,8.5-8.5s-3.8-8.5-8.5-8.5l0,0c4.7,0,8.5-3.8,8.5-8.5   s-3.8-8.5-8.5-8.5l0,0C193.7,129.6,197.5,125.8,197.5,121.1C197.5,121.1,197.5,121.1,197.5,121.1z"/>
	<path class="st2" d="M61.1,84.9h28c1.4,0,2.6,1.2,2.6,2.6v79.9c0,1.4-1.2,2.6-2.6,2.6h-28c-1.4,0-2.6-1.2-2.6-2.6V87.5   C58.5,86.1,59.6,84.9,61.1,84.9z"/>
	<path class="st3" d="M103.8,90H91.7v73.6h12.1c1.4,0,2.6-1.2,2.6-2.6l0,0V92.6C106.4,91.2,105.3,90,103.8,90   C103.8,90,103.8,90,103.8,90z"/>
	<path class="st1" d="M197.5,121.1c0-4.7-3.8-8.5-8.5-8.5l0,0c4.7,0,8.5-3.8,8.5-8.5s-3.8-8.5-8.5-8.5h-25.2   c4.1-12.2,10.2-22.7,8.6-31.1c-1.9-9.6-13.9-12.8-15.7-3.7c-1.7,8.9-15.3,25.9-15.3,25.9c-4.3,4.3-4,9.2-35,9.2v61.9H122   c4.2,0,8.3,0.7,12.3,1.9l6.5,2.1c3.6,1.2,7.4,1.8,11.2,1.8h37c4.7,0,8.5-3.8,8.5-8.5s-3.8-8.5-8.5-8.5l0,0c4.7,0,8.5-3.8,8.5-8.5   s-3.8-8.5-8.5-8.5l0,0C193.7,129.6,197.5,125.8,197.5,121.1C197.5,121.1,197.5,121.1,197.5,121.1z"/>
	<path class="st4" d="M47.3,231.5h-1.8v-1.8c0-1.4-1.1-2.5-2.5-2.5s-2.5,1.1-2.5,2.5v1.8h-1.8c-1.4,0-2.5,1.1-2.5,2.5   s1.1,2.5,2.5,2.5h1.8v1.8c0,1.4,1.1,2.5,2.5,2.5s2.5-1.1,2.5-2.5v-1.8h1.8c1.4,0,2.5-1.1,2.5-2.5S48.7,231.5,47.3,231.5z"/>
	<path class="st0" d="M240.8,37.4c-0.1-0.3-0.2-0.6-0.4-0.9c-0.1-0.1-0.2-0.3-0.3-0.4c-1-0.9-2.5-0.9-3.5,0   c-0.1,0.1-0.2,0.2-0.3,0.4c-0.1,0.1-0.2,0.3-0.2,0.4c-0.1,0.2-0.1,0.3-0.1,0.5c-0.1,0.3-0.1,0.7,0,1c0,0.2,0.1,0.3,0.1,0.5   c0.1,0.1,0.1,0.3,0.2,0.4c0.1,0.1,0.2,0.3,0.3,0.4c1,1,2.5,1,3.5,0c0,0,0,0,0,0c0.1-0.1,0.2-0.2,0.3-0.4c0.1-0.1,0.2-0.3,0.2-0.4   c0.1-0.1,0.1-0.3,0.1-0.5C240.9,38.1,240.9,37.8,240.8,37.4z"/>
	<path class="st5" d="M68.5,253c-0.1-0.3-0.2-0.6-0.4-0.9c-0.1-0.1-0.2-0.3-0.3-0.4c-1-0.9-2.5-0.9-3.5,0c-0.1,0.1-0.2,0.2-0.3,0.4   c-0.1,0.1-0.2,0.3-0.2,0.4c-0.1,0.2-0.1,0.3-0.1,0.5c-0.1,0.3-0.1,0.7,0,1c0,0.2,0.1,0.3,0.1,0.5c0.1,0.1,0.1,0.3,0.2,0.4   c0.1,0.1,0.2,0.3,0.3,0.4c1,1,2.5,1,3.5,0c0,0,0,0,0,0c0.1-0.1,0.2-0.2,0.3-0.4c0.1-0.1,0.2-0.3,0.2-0.4c0.1-0.1,0.1-0.3,0.1-0.5   C68.6,253.7,68.6,253.3,68.5,253z"/>
	<path class="st2" d="M227.8,8.2c-4.1-0.8-7.2-4-8-8c0-0.1-0.1-0.2-0.2-0.2c-0.1,0-0.1,0.1-0.2,0.2c-0.8,4.1-4,7.2-8,8   c-0.1,0-0.2,0.1-0.2,0.2c0,0.1,0.1,0.1,0.2,0.2c4.1,0.8,7.2,4,8,8c0,0.1,0.1,0.2,0.2,0.2c0.1,0,0.1-0.1,0.2-0.2c0.8-4.1,4-7.2,8-8   c0.1,0,0.2-0.1,0.2-0.2C227.9,8.2,227.9,8.2,227.8,8.2z"/>
	<path class="st6" d="M103.8,87.5H91.7c-1.4,0-2.5,1.1-2.5,2.5v73.6c0,1.4,1.1,2.5,2.5,2.5h12.1c2.8,0,5.1-2.3,5.1-5.1V92.6   C108.9,89.8,106.6,87.5,103.8,87.5z M103.9,161c0,0.1-0.1,0.1-0.1,0.1h-9.6V92.5h9.6c0.1,0,0.1,0.1,0.1,0.1c0,0,0,0,0,0V161z"/>
	<path class="st6" d="M200,121.1c0-3.3-1.5-6.4-4-8.5c4.7-3.9,5.4-10.8,1.5-15.5c-2.1-2.5-5.2-4-8.5-4h-21.7   c0.8-2.2,1.6-4.3,2.5-6.4c3.4-8.5,6.3-15.9,5-22.7c-1.4-7.2-7.3-11.2-12.2-11.2l0,0c-4.3,0-7.5,2.8-8.4,7.4   c-1.3,6.8-11,20-14.7,24.7c-0.6,0.6-1,1.1-1.5,1.7c-2.8,3.3-5.7,6.7-31.6,6.7c-1.4,0-2.5,1.1-2.5,2.5v61.9c0,1.4,1.1,2.5,2.5,2.5   H122c3.9,0,7.8,0.6,11.5,1.8l6.5,2.1c3.9,1.2,7.9,1.9,12,1.9h37c6.1,0,11-4.9,11-11c0-3.3-1.5-6.4-4-8.5c4.7-3.8,5.4-10.8,1.5-15.5   c-0.5-0.6-1-1.1-1.5-1.5C198.6,127.5,200,124.4,200,121.1z M189,115.1c3.3,0,6,2.7,6,6s-2.7,6-6,6c-1.4,0-2.5,1.1-2.5,2.5   c0,1.4,1.1,2.5,2.5,2.5c3.3,0,6,2.7,6,6s-2.7,6-6,6c-1.4,0-2.5,1.1-2.5,2.5s1.1,2.5,2.5,2.5c3.3,0,6,2.7,6,6s-2.7,6-6,6h-37   c-3.5,0-7.1-0.6-10.4-1.6l-6.5-2.1c-4.2-1.4-8.6-2.1-13.1-2.1h-13.1V98.4c24.1-0.2,28.7-3.5,32.9-8.4c0.4-0.5,0.9-1,1.3-1.5   c0.1-0.1,0.1-0.1,0.2-0.2c0.6-0.7,14-17.6,15.8-27c0.4-2.2,1.6-3.4,3.5-3.4l0,0c2.9,0,6.4,2.7,7.3,7.1c1,5.3-1.6,12.1-4.8,19.9   c-1.3,3.2-2.6,6.4-3.7,9.9c-0.4,1.3,0.3,2.7,1.6,3.2c0.3,0.1,0.5,0.1,0.8,0.1H189c3.3,0,6,2.7,6,6s-2.7,6-6,6   c-1.4,0-2.5,1.1-2.5,2.5S187.7,115.1,189,115.1L189,115.1z"/>
	<path class="st6" d="M89.1,82.4h-28c-2.8,0-5.1,2.3-5.1,5.1v79.9c0,2.8,2.3,5.1,5.1,5.1h28c2.8,0,5.1-2.3,5.1-5.1V87.5   C94.2,84.7,91.9,82.4,89.1,82.4z M89.2,167.4c0,0.1-0.1,0.1-0.1,0.1c0,0,0,0,0,0h-28c-0.1,0-0.1-0.1-0.1-0.1l0,0V87.5   c0-0.1,0.1-0.1,0.1-0.1c0,0,0,0,0,0h28c0.1,0,0.1,0.1,0.1,0.1c0,0,0,0,0,0V167.4z"/>
	<path class="st6" d="M103.8,87.5H91.7c-1.4,0-2.5,1.1-2.5,2.5v73.6c0,1.4,1.1,2.5,2.5,2.5h12.1c2.8,0,5.1-2.3,5.1-5.1V92.6   C108.9,89.8,106.6,87.5,103.8,87.5z M103.9,161c0,0.1-0.1,0.1-0.1,0.1h-9.6V92.5h9.6c0.1,0,0.1,0.1,0.1,0.1c0,0,0,0,0,0V161z"/>
	<path class="st6" d="M200,121.1c0-3.3-1.5-6.4-4-8.5c4.7-3.9,5.4-10.8,1.5-15.5c-2.1-2.5-5.2-4-8.5-4h-21.7   c0.8-2.2,1.6-4.3,2.5-6.4c3.4-8.5,6.3-15.9,5-22.7c-1.4-7.2-7.3-11.2-12.2-11.2l0,0c-4.3,0-7.5,2.8-8.4,7.4   c-1.3,6.8-11,20-14.7,24.7c-0.6,0.6-1,1.1-1.5,1.7c-2.8,3.3-5.7,6.7-31.6,6.7c-1.4,0-2.5,1.1-2.5,2.5v61.9c0,1.4,1.1,2.5,2.5,2.5   H122c3.9,0,7.8,0.6,11.5,1.8l6.5,2.1c3.9,1.2,7.9,1.9,12,1.9h37c6.1,0,11-4.9,11-11c0-3.3-1.5-6.4-4-8.5c4.7-3.8,5.4-10.8,1.5-15.5   c-0.5-0.6-1-1.1-1.5-1.5C198.6,127.5,200,124.4,200,121.1z M189,115.1c3.3,0,6,2.7,6,6s-2.7,6-6,6c-1.4,0-2.5,1.1-2.5,2.5   c0,1.4,1.1,2.5,2.5,2.5c3.3,0,6,2.7,6,6s-2.7,6-6,6c-1.4,0-2.5,1.1-2.5,2.5s1.1,2.5,2.5,2.5c3.3,0,6,2.7,6,6s-2.7,6-6,6h-37   c-3.5,0-7.1-0.6-10.4-1.6l-6.5-2.1c-4.2-1.4-8.6-2.1-13.1-2.1h-13.1V98.4c24.1-0.2,28.7-3.5,32.9-8.4c0.4-0.5,0.9-1,1.3-1.5   c0.1-0.1,0.1-0.1,0.2-0.2c0.6-0.7,14-17.6,15.8-27c0.4-2.2,1.6-3.4,3.5-3.4l0,0c2.9,0,6.4,2.7,7.3,7.1c1,5.3-1.6,12.1-4.8,19.9   c-1.3,3.2-2.6,6.4-3.7,9.9c-0.4,1.3,0.3,2.7,1.6,3.2c0.3,0.1,0.5,0.1,0.8,0.1H189c3.3,0,6,2.7,6,6s-2.7,6-6,6   c-1.4,0-2.5,1.1-2.5,2.5S187.7,115.1,189,115.1L189,115.1z"/>
	<path class="st6" d="M166.3,95.2c-0.2-1.4-1.5-2.3-2.9-2c-1.4,0.2-2.3,1.5-2,2.9c0.1,0.7,2.4,16.3-17.1,26   c-1.2,0.6-1.7,2.1-1.1,3.4s2.1,1.7,3.4,1.1l0,0C169.4,115.1,166.3,95.4,166.3,95.2z"/>
	<path class="st6" d="M189,93.1h-16.6c-6.1,0-11,4.9-11,11s4.9,11,11,11H189c6.1,0,11-4.9,11-11S195.1,93.1,189,93.1L189,93.1z    M189,110.1h-16.6c-3.3,0-6-2.7-6-6s2.7-6,6-6H189c3.3,0,6,2.7,6,6S192.4,110.1,189,110.1z"/>
	<path class="st6" d="M189,110.1h-16.6c-6.1,0-11,4.9-11,11s4.9,11,11,11H189c6.1,0,11-4.9,11-11S195.1,110.1,189,110.1L189,110.1z    M189,127.1h-16.6c-3.3,0-6-2.7-6-6s2.7-6,6-6H189c3.3,0,6,2.7,6,6S192.4,127.1,189,127.1z"/>
	<path class="st6" d="M189,127.1h-16.6c-6.1,0-11,4.9-11,11c0,6.1,4.9,11,11,11H189c6.1,0,11-4.9,11-11S195.1,127.1,189,127.1   C189,127.1,189,127.1,189,127.1z M189,144.1h-16.6c-3.3,0-6-2.7-6-6s2.7-6,6-6H189c3.3,0,6,2.7,6,6S192.4,144.1,189,144.1z"/>
	<path class="st6" d="M189,144.1h-16.6c-6.1,0-11,4.9-11,11s4.9,11,11,11H189c6.1,0,11-4.9,11-11S195.1,144.1,189,144.1L189,144.1z    M189,161.1h-16.6c-3.3,0-6-2.7-6-6s2.7-6,6-6H189c3.3,0,6,2.7,6,6S192.4,161.1,189,161.1z"/>
	<path class="st6" d="M193,22H63c-18.9,0-34.2,15.3-34.3,34.3v130.1c0,18.9,15.3,34.2,34.3,34.2h33.6c3.1,0,5.9,1.5,7.6,4.1l19,28.7   c1.1,1.6,2.9,2.6,4.8,2.6l0,0c1.9,0,3.8-1,4.8-2.6l19-28.7c1.7-2.6,4.6-4.1,7.6-4.1H193c18.9,0,34.2-15.3,34.3-34.3V56.3   C227.3,37.3,211.9,22,193,22z M222.3,186.3c0,16.1-13.1,29.2-29.3,29.3h-33.6c-4.8,0-9.2,2.4-11.8,6.4l-19,28.7   c-0.2,0.4-0.7,0.5-1.1,0.2c-0.1-0.1-0.2-0.1-0.2-0.2l-19-28.7c-2.6-4-7-6.4-11.8-6.3H63c-16.1,0-29.2-13.1-29.3-29.2V56.3   C33.7,40.1,46.8,27,63,27H193c16.1,0,29.2,13.1,29.3,29.2V186.3z"/>
</g>
</svg>