<?xml version="1.0" encoding="UTF-8"?>
<!-- Generator: Adobe Illustrator 21.0.0, SVG Export Plug-In . SVG Version: 6.00 Build 0)  -->
<svg xmlns="http://www.w3.org/2000/svg" xmlns:xlink="http://www.w3.org/1999/xlink" version="1.1" id="Layer_1" x="0px" y="0px" viewBox="0 0 256 256" style="enable-background:new 0 0 256 256;" xml:space="preserve" width="512px" height="512px">
<style type="text/css">
	.st0{fill:#FFCD29;}
	.st1{fill:#FFAE2C;}
	.st2{fill:#6DCC6D;}
	.st3{fill:#EA4647;}
	.st4{fill:#55ACD5;}
	.st5{fill:#231F20;}
</style>
<g id="Layer_11">
	<path class="st0" d="M206.4,123.3c0.8-0.8,0.8-2.1,0-3c-0.3-0.3-0.7-0.5-1.2-0.6l-51-7.4c-0.7-0.1-1.3-0.5-1.6-1.1l-22.8-46.2   c-0.5-1-1.8-1.5-2.8-0.9c-0.4,0.2-0.7,0.5-0.9,0.9l-22.8,46.2c-0.3,0.6-0.9,1-1.6,1.1l-51,7.4c-1.1,0.2-1.9,1.2-1.8,2.4   c0.1,0.5,0.3,0.9,0.6,1.2l36.9,36c0.5,0.5,0.7,1.2,0.6,1.8l-8.7,50.8c-0.2,1.1,0.6,2.2,1.7,2.4c0.5,0.1,0.9,0,1.3-0.2l45.6-24   c0.6-0.3,1.3-0.3,1.9,0l45.6,24c1,0.5,2.3,0.1,2.8-0.9c0.2-0.4,0.3-0.9,0.2-1.3l-8.7-50.8c-0.1-0.7,0.1-1.4,0.6-1.8L206.4,123.3z"/>
	<path class="st1" d="M252.9,80.1c0.8-0.8,0.8-2.1,0-2.9c-0.3-0.3-0.7-0.5-1.2-0.6l-31.1-4.5c-0.7-0.1-1.2-0.5-1.5-1.1l-13.9-28.1   c-0.5-1-1.7-1.4-2.7-0.9c-0.4,0.2-0.7,0.5-0.9,0.9L187.7,71c-0.3,0.6-0.9,1-1.5,1.1l-31.1,4.5c-1.1,0.2-1.9,1.2-1.7,2.3   c0.1,0.4,0.3,0.9,0.6,1.2l22.5,21.9c0.5,0.5,0.7,1.1,0.6,1.8l-2,11.6l30.1,4.4c1.1,0.2,1.9,1.2,1.8,2.4c-0.1,0.5-0.3,0.9-0.6,1.2   l0,0l25.8,13.6c1,0.5,2.2,0.1,2.7-0.9c0.2-0.4,0.3-0.9,0.2-1.3l-5.3-30.9c-0.1-0.7,0.1-1.3,0.6-1.8L252.9,80.1z"/>
	<path class="st1" d="M102,80.1c0.8-0.8,0.8-2.1,0-2.9c-0.3-0.3-0.7-0.5-1.2-0.6l-31.1-4.5c-0.7-0.1-1.2-0.5-1.5-1.1L54.4,42.8   c-0.5-1-1.7-1.4-2.7-0.9c-0.4,0.2-0.7,0.5-0.9,0.9L36.8,71c-0.3,0.6-0.9,1-1.5,1.1L4.2,76.6c-1.1,0.2-1.9,1.2-1.7,2.3   c0.1,0.4,0.3,0.9,0.6,1.2L25.6,102c0.5,0.5,0.7,1.1,0.6,1.8l-5.3,30.9c-0.2,1.1,0.6,2.2,1.7,2.4c0.4,0.1,0.9,0,1.3-0.2l25.8-13.6   l0,0c-0.8-0.8-0.8-2.1,0-3c0.3-0.3,0.7-0.5,1.2-0.6l30.2-4.4l-2-11.6c-0.1-0.7,0.1-1.3,0.6-1.8L102,80.1z"/>
	<path class="st2" d="M200.9,160.5h-1.8v-1.8c0-1.4-1.1-2.5-2.5-2.5s-2.5,1.1-2.5,2.5v1.8h-1.8c-1.4,0-2.5,1.1-2.5,2.5   s1.1,2.5,2.5,2.5h1.8v1.8c0,1.4,1.1,2.5,2.5,2.5s2.5-1.1,2.5-2.5v-1.8h1.8c1.4,0,2.5-1.1,2.5-2.5S202.3,160.5,200.9,160.5z"/>
	<path class="st0" d="M80.5,16.6c-0.1-0.3-0.2-0.6-0.4-0.9c-0.1-0.1-0.2-0.3-0.3-0.4c-1-0.9-2.5-0.9-3.5,0c-0.1,0.1-0.2,0.2-0.3,0.4   c-0.1,0.1-0.2,0.3-0.2,0.4c-0.1,0.2-0.1,0.3-0.1,0.5c-0.1,0.3-0.1,0.7,0,1c0,0.2,0.1,0.3,0.1,0.5c0.1,0.1,0.1,0.3,0.2,0.4   c0.1,0.1,0.2,0.3,0.3,0.4c1,1,2.5,1,3.5,0c0,0,0,0,0,0c0.1-0.1,0.2-0.2,0.3-0.4c0.1-0.1,0.2-0.3,0.2-0.4c0.1-0.1,0.1-0.3,0.1-0.5   C80.6,17.2,80.6,16.9,80.5,16.6z"/>
	<path class="st0" d="M223.2,189.2c0-0.2-0.1-0.3-0.1-0.5c-0.1-0.2-0.1-0.3-0.2-0.4c-0.1-0.1-0.2-0.3-0.3-0.4c-1-0.9-2.5-0.9-3.5,0   c-0.1,0.1-0.2,0.2-0.3,0.4c-0.1,0.1-0.2,0.3-0.2,0.4c-0.1,0.2-0.1,0.3-0.1,0.5c-0.1,0.3-0.1,0.7,0,1c0,0.2,0.1,0.3,0.1,0.5   c0.1,0.1,0.1,0.3,0.2,0.4c0.1,0.1,0.2,0.3,0.3,0.4c1,1,2.5,1,3.5,0c0,0,0,0,0,0c0.1-0.1,0.2-0.2,0.3-0.4c0.1-0.1,0.2-0.3,0.2-0.4   c0.1-0.1,0.1-0.3,0.1-0.5C223.3,189.9,223.3,189.6,223.2,189.2z"/>
	<path class="st3" d="M110.8,41.5c-4.1-0.8-7.2-4-8-8c0-0.1-0.1-0.2-0.2-0.2c-0.1,0-0.1,0.1-0.2,0.2c-0.8,4.1-4,7.2-8,8   c-0.1,0-0.2,0.1-0.2,0.2c0,0.1,0.1,0.1,0.2,0.2c4.1,0.8,7.2,4,8,8c0,0.1,0.1,0.2,0.2,0.2c0.1,0,0.1-0.1,0.2-0.2c0.8-4.1,4-7.2,8-8   c0.1,0,0.2-0.1,0.1-0.2C110.9,41.6,110.9,41.5,110.8,41.5z"/>
	<path class="st4" d="M255.8,169.7c-4.1-0.8-7.2-4-8-8c0-0.1-0.1-0.2-0.2-0.2c-0.1,0-0.1,0.1-0.2,0.2c-0.8,4.1-4,7.2-8,8   c-0.1,0-0.2,0.1-0.2,0.2c0,0.1,0.1,0.1,0.2,0.2c4.1,0.8,7.2,4,8,8c0,0.1,0.1,0.2,0.2,0.2c0.1,0,0.1-0.1,0.2-0.2c0.8-4.1,4-7.2,8-8   c0.1,0,0.2-0.1,0.2-0.2C256,169.7,255.9,169.7,255.8,169.7z"/>
	<path class="st5" d="M209.3,120.4c-0.5-1.7-2-2.9-3.7-3.1l-50.8-7.4l-22.7-46l0,0c-1.1-2.3-3.9-3.2-6.1-2.1   c-0.9,0.4-1.6,1.2-2.1,2.1l-22.7,46l-50.8,7.4c-2.5,0.4-4.2,2.7-3.9,5.2c0.1,1,0.6,1.9,1.3,2.6l36.7,35.8l-8.7,50.6   c-0.4,2.5,1.2,4.9,3.7,5.3c1,0.2,2,0,2.9-0.5l45.4-23.9l45.4,23.9c2.2,1.2,5,0.3,6.2-1.9c0.5-0.9,0.6-1.9,0.5-2.9l-8.7-50.6   l36.7-35.8C209.4,123.8,209.9,122,209.3,120.4z M127.6,66.1L127.6,66.1z M167.8,157.5c-1.1,1.1-1.6,2.6-1.3,4.1l8.6,50l-44.9-23.6   c-1.3-0.7-2.9-0.7-4.3,0L81,211.5l8.6-50c0.3-1.5-0.2-3-1.3-4.1l-36.3-35.4l50.2-7.3c1.5-0.2,2.8-1.2,3.5-2.5L128,66.8l22.4,45.5   c0.7,1.4,2,2.3,3.5,2.5l50.2,7.3L167.8,157.5z"/>
	<path class="st5" d="M255.8,77.2c-0.5-1.6-2-2.8-3.7-3.1l-30.8-4.5l-13.8-27.9c-0.8-1.6-2.3-2.5-4.1-2.5l0,0c-1.7,0-3.3,1-4.1,2.5   l-13.8,27.9l-30.8,4.5c-2.5,0.4-4.2,2.7-3.8,5.1c0.1,1,0.6,1.9,1.3,2.6l22.3,21.7l-1.9,11.3c-0.2,1.4,0.7,2.7,2,2.9c0,0,0,0,0.1,0   l29.5,4.3c-0.7,1.2-0.2,2.7,1,3.4c0,0,0,0,0,0l25.8,13.6c2.2,1.2,5,0.3,6.1-1.9c0.5-0.9,0.6-1.9,0.5-2.9l-5.3-30.7l22.3-21.7l0,0   C255.9,80.7,256.3,78.8,255.8,77.2z M228.7,100.2c-1.1,1-1.6,2.5-1.3,4l5.1,30l-23-12.1c0.2-2.4-1.5-4.5-3.9-4.9l-27.6-4l1.5-9   c0.3-1.5-0.2-3-1.3-4l-21.8-21.2l30.1-4.4c1.5-0.2,2.8-1.1,3.4-2.5l13.5-27.3l13.5,27.3c0.7,1.3,1.9,2.3,3.4,2.5l30.1,4.4   L228.7,100.2z"/>
	<path class="st5" d="M104.9,77.2c-0.5-1.6-1.9-2.8-3.7-3.1l-30.8-4.5L56.6,41.7c-1.1-2.2-3.8-3.2-6.1-2.1c-0.9,0.4-1.6,1.2-2.1,2.1   L34.7,69.6L3.9,74.1c-2.5,0.4-4.2,2.7-3.8,5.1c0.1,1,0.6,1.9,1.3,2.6l22.3,21.7l-5.3,30.7c-0.4,2.5,1.2,4.8,3.7,5.2   c1,0.2,2,0,2.9-0.5l25.8-13.6c1.2-0.6,1.7-2.2,1-3.4c0,0,0,0,0,0l29.5-4.3c1.4-0.2,2.3-1.5,2.1-2.8c0,0,0,0,0-0.1l-1.9-11.3   l22.3-21.7C105,80.6,105.4,78.8,104.9,77.2z M77.8,100.2c-1.1,1-1.6,2.5-1.3,4l1.5,9l-27.6,4c-1.7,0.2-3.2,1.5-3.7,3.1   c-0.2,0.6-0.3,1.2-0.2,1.8l-23,12.1l5.1-30c0.3-1.5-0.2-3-1.3-4L5.5,78.9l30.1-4.4c1.5-0.2,2.8-1.1,3.4-2.5l13.5-27.3L66,72.1   c0.7,1.3,1.9,2.3,3.4,2.5l30.1,4.4L77.8,100.2z"/>
</g>
</svg>