<svg xmlns="http://www.w3.org/2000/svg" xmlns:xlink="http://www.w3.org/1999/xlink" version="1.1" id="Layer_1" x="0px" y="0px" viewBox="0 0 256 256" style="enable-background:new 0 0 256 256;" xml:space="preserve" width="512" height="512"><g transform="matrix(-1, -0, 0, 1, 256, 0)"><style type="text/css">
	.st0{fill:#EA4647;}
	.st1{fill:#F9D0B4;}
	.st2{fill:#55ACD5;}
	.st3{fill:#E9E9EA;}
	.st4{fill:#6DCC6D;}
	.st5{fill:#FFCD29;}
	.st6{fill:#231F20;}
</style><g id="Layer_20">
	<path class="st0 active-path" d="M193,24.5H63c-17.5,0.1-31.7,14.2-31.8,31.8v130.1c0.1,17.5,14.2,31.7,31.8,31.8h33.6c3.9,0,7.6,2,9.7,5.2   l19,28.7c1,1.5,3.1,1.9,4.6,0.9c0.4-0.2,0.7-0.6,0.9-0.9l19-28.7c2.2-3.3,5.8-5.2,9.7-5.2H193c17.5-0.1,31.7-14.2,31.8-31.8V56.3   C224.7,38.7,210.5,24.6,193,24.5z" data-original="#000000"/>
	<path class="st1 active-path" d="M103.8,81.3H91.7v73.6h12.1c1.4,0,2.6-1.2,2.6-2.6l0,0V84C106.4,82.5,105.3,81.3,103.8,81.3   C103.8,81.3,103.8,81.3,103.8,81.3z" data-original="#000000"/>
	<path class="st1 active-path" d="M197.5,106.9c0-4.7-3.8-8.5-8.5-8.5c4.7,0,8.5-3.8,8.5-8.5s-3.8-8.5-8.5-8.5h-37c-3.8,0-7.6,0.6-11.2,1.8   l-6.5,2.1c-4,1.3-8.1,1.9-12.3,1.9h-15.6v61.9c31,0,30.7,5,35,9.2c0,0,13.6,17,15.3,25.9c1.8,9.1,13.8,5.9,15.7-3.7   c1.6-8.4-4.4-18.8-8.6-31.1H189c4.7,0,8.5-3.8,8.5-8.5s-3.8-8.5-8.5-8.5l0,0c4.7,0,8.5-3.8,8.5-8.5c0-4.7-3.8-8.5-8.5-8.5l0,0   C193.7,115.4,197.5,111.6,197.5,106.9C197.5,106.9,197.5,106.9,197.5,106.9z" data-original="#000000"/>
	<path class="st2 active-path" d="M61.1,74.9h28c1.4,0,2.6,1.2,2.6,2.6v79.9c0,1.4-1.2,2.6-2.6,2.6h-28c-1.4,0-2.6-1.2-2.6-2.6V77.6   C58.5,76.1,59.6,74.9,61.1,74.9z" data-original="#000000"/>
	<path class="st3 active-path" d="M103.8,81.3H91.7v73.6h12.1c1.4,0,2.6-1.2,2.6-2.6l0,0V84C106.4,82.5,105.3,81.3,103.8,81.3   C103.8,81.3,103.8,81.3,103.8,81.3z" data-original="#000000"/>
	<path class="st1 active-path" d="M197.5,106.9c0-4.7-3.8-8.5-8.5-8.5c4.7,0,8.5-3.8,8.5-8.5s-3.8-8.5-8.5-8.5h-37c-3.8,0-7.6,0.6-11.2,1.8   l-6.5,2.1c-4,1.3-8.1,1.9-12.3,1.9h-15.6v61.9c31,0,30.7,5,35,9.2c0,0,13.6,17,15.3,25.9c1.8,9.1,13.8,5.9,15.7-3.7   c1.6-8.4-4.4-18.8-8.6-31.1H189c4.7,0,8.5-3.8,8.5-8.5s-3.8-8.5-8.5-8.5l0,0c4.7,0,8.5-3.8,8.5-8.5c0-4.7-3.8-8.5-8.5-8.5l0,0   C193.7,115.4,197.5,111.6,197.5,106.9C197.5,106.9,197.5,106.9,197.5,106.9z" data-original="#000000"/>
	<path class="st0 active-path" d="M46.5,231.5h-1.8v-1.8c0-1.4-1.1-2.5-2.5-2.5s-2.5,1.1-2.5,2.5v1.8h-1.8c-1.4,0-2.5,1.1-2.5,2.5   s1.1,2.5,2.5,2.5h1.8v1.8c0,1.4,1.1,2.5,2.5,2.5s2.5-1.1,2.5-2.5v-1.8h1.8c1.4,0,2.5-1.1,2.5-2.5S47.8,231.5,46.5,231.5z" data-original="#000000"/>
	<path class="st2 active-path" d="M240,37.4c-0.1-0.3-0.2-0.6-0.4-0.9c-0.1-0.1-0.2-0.3-0.3-0.4c-1-0.9-2.5-0.9-3.5,0c-0.1,0.1-0.2,0.2-0.3,0.4   c-0.1,0.1-0.2,0.3-0.2,0.4c-0.1,0.2-0.1,0.3-0.1,0.5c-0.1,0.3-0.1,0.7,0,1c0,0.2,0.1,0.3,0.1,0.5c0.1,0.1,0.1,0.3,0.2,0.4   c0.1,0.1,0.2,0.3,0.3,0.4c1,1,2.5,1,3.5,0c0,0,0,0,0,0c0.1-0.1,0.2-0.2,0.3-0.4c0.1-0.1,0.2-0.3,0.2-0.4c0.1-0.1,0.1-0.3,0.1-0.5   C240.1,38.1,240.1,37.8,240,37.4z" data-original="#000000"/>
	<path class="st4 active-path" d="M67.7,253c-0.1-0.3-0.2-0.6-0.4-0.9c-0.1-0.1-0.2-0.3-0.3-0.4c-1-0.9-2.5-0.9-3.5,0c-0.1,0.1-0.2,0.2-0.3,0.4   c-0.1,0.1-0.2,0.3-0.2,0.4c-0.1,0.2-0.1,0.3-0.1,0.5c-0.1,0.3-0.1,0.7,0,1c0,0.2,0.1,0.3,0.1,0.5c0.1,0.1,0.1,0.3,0.2,0.4   c0.1,0.1,0.2,0.3,0.3,0.4c1,1,2.5,1,3.5,0c0,0,0,0,0,0c0.1-0.1,0.2-0.2,0.3-0.4c0.1-0.1,0.2-0.3,0.2-0.4c0.1-0.1,0.1-0.3,0.1-0.5   C67.7,253.7,67.7,253.3,67.7,253z" data-original="#000000"/>
	<path class="st5 active-path" d="M227,8.2c-4.1-0.8-7.2-4-8-8c0-0.1-0.1-0.2-0.2-0.2c-0.1,0-0.1,0.1-0.2,0.2c-0.8,4.1-4,7.2-8,8   c-0.1,0-0.2,0.1-0.2,0.2c0,0.1,0.1,0.1,0.2,0.2c4.1,0.8,7.2,4,8,8c0,0.1,0.1,0.2,0.2,0.2c0.1,0,0.1-0.1,0.2-0.2c0.8-4.1,4-7.2,8-8   c0.1,0,0.2-0.1,0.2-0.2C227.1,8.2,227.1,8.2,227,8.2z" data-original="#000000"/>
	<path class="st6 active-path" d="M103.8,78.8H91.7c-1.4,0-2.5,1.1-2.5,2.5v73.6c0,1.4,1.1,2.5,2.5,2.5h12.1c2.8,0,5.1-2.3,5.1-5.1V84   C108.9,81.1,106.6,78.8,103.8,78.8z M103.9,152.3c0,0.1-0.1,0.1-0.1,0.1h-9.6V83.8h9.6c0.1,0,0.1,0.1,0.1,0.1c0,0,0,0,0,0V152.3z" data-original="#000000"/>
	<path class="st6 active-path" d="M200,106.9c0-3.3-1.5-6.4-4-8.5c4.7-3.9,5.4-10.8,1.5-15.5c-2.1-2.5-5.2-4-8.5-4h-37c-4.1,0-8.1,0.6-12,1.9   l-6.5,2.1c-3.7,1.2-7.6,1.8-11.5,1.8h-15.6c-1.4,0-2.5,1.1-2.5,2.5v61.9c0,1.4,1.1,2.5,2.5,2.5c25.9,0,28.8,3.4,31.6,6.7   c0.5,0.5,0.9,1.1,1.5,1.7c3.7,4.7,13.4,17.9,14.7,24.7c0.9,4.6,4.1,7.4,8.4,7.4l0,0c4.9,0,10.8-3.9,12.2-11.2   c1.3-6.8-1.6-14.2-5-22.7c-0.8-2.1-1.7-4.2-2.5-6.4H189c6.1,0,11-4.9,11-11c0-3.3-1.5-6.4-4-8.5c4.7-3.8,5.4-10.8,1.5-15.5   c-0.5-0.6-1-1.1-1.5-1.5C198.6,113.3,200,110.2,200,106.9z M189,100.9c3.3,0,6,2.7,6,6s-2.7,6-6,6c-1.4,0-2.5,1.1-2.5,2.5   s1.1,2.5,2.5,2.5c3.3,0,6,2.7,6,6s-2.7,6-6,6c-1.4,0-2.5,1.1-2.5,2.5s1.1,2.5,2.5,2.5c3.3,0,6,2.7,6,6s-2.7,6-6,6h-25.2   c-1.4,0-2.5,1.1-2.5,2.5c0,0.3,0,0.5,0.1,0.8c1.2,3.5,2.5,6.7,3.7,9.9c3.1,7.8,5.8,14.5,4.8,19.9c-0.9,4.5-4.4,7.1-7.3,7.1l0,0   c-1.9,0-3.1-1.1-3.5-3.4c-1.8-9.4-15.2-26.3-15.8-27c-0.1-0.1-0.1-0.1-0.2-0.2c-0.5-0.5-0.9-1-1.3-1.5c-4.2-4.9-8.8-8.2-32.9-8.4   V89.6H122c4.4,0,8.8-0.7,13.1-2.1l6.5-2.1c3.4-1.1,6.9-1.6,10.4-1.6h37c3.3,0,6,2.7,6,6s-2.7,6-6,6c-1.4,0-2.5,1.1-2.5,2.5   S187.7,100.8,189,100.9L189,100.9z" data-original="#000000"/>
	<path class="st6 active-path" d="M89.1,72.4h-28c-2.8,0-5.1,2.3-5.1,5.1v79.9c0,2.8,2.3,5.1,5.1,5.1h28c2.8,0,5.1-2.3,5.1-5.1V77.6   C94.2,74.7,91.9,72.5,89.1,72.4z M89.2,157.4c0,0.1-0.1,0.1-0.1,0.1h-28c-0.1,0-0.1-0.1-0.1-0.1V77.6c0-0.1,0.1-0.1,0.1-0.1l0,0h28   c0.1,0,0.1,0.1,0.1,0.1c0,0,0,0,0,0V157.4z" data-original="#000000"/>
	<path class="st6 active-path" d="M103.8,78.8H91.7c-1.4,0-2.5,1.1-2.5,2.5v73.6c0,1.4,1.1,2.5,2.5,2.5h12.1c2.8,0,5.1-2.3,5.1-5.1V84   C108.9,81.1,106.6,78.8,103.8,78.8z M103.9,152.3c0,0.1-0.1,0.1-0.1,0.1h-9.6V83.8h9.6c0.1,0,0.1,0.1,0.1,0.1c0,0,0,0,0,0V152.3z" data-original="#000000"/>
	<path class="st6 active-path" d="M200,106.9c0-3.3-1.5-6.4-4-8.5c4.7-3.9,5.4-10.8,1.5-15.5c-2.1-2.5-5.2-4-8.5-4h-37c-4.1,0-8.1,0.6-12,1.9   l-6.5,2.1c-3.7,1.2-7.6,1.8-11.5,1.8h-15.6c-1.4,0-2.5,1.1-2.5,2.5v61.9c0,1.4,1.1,2.5,2.5,2.5c25.9,0,28.8,3.4,31.6,6.7   c0.5,0.5,0.9,1.1,1.5,1.7c3.7,4.7,13.4,17.9,14.7,24.7c0.9,4.6,4.1,7.4,8.4,7.4l0,0c4.9,0,10.8-3.9,12.2-11.2   c1.3-6.8-1.6-14.2-5-22.7c-0.8-2.1-1.7-4.2-2.5-6.4H189c6.1,0,11-4.9,11-11c0-3.3-1.5-6.4-4-8.5c4.7-3.8,5.4-10.8,1.5-15.5   c-0.5-0.6-1-1.1-1.5-1.5C198.6,113.3,200,110.2,200,106.9z M189,100.9c3.3,0,6,2.7,6,6s-2.7,6-6,6c-1.4,0-2.5,1.1-2.5,2.5   s1.1,2.5,2.5,2.5c3.3,0,6,2.7,6,6s-2.7,6-6,6c-1.4,0-2.5,1.1-2.5,2.5s1.1,2.5,2.5,2.5c3.3,0,6,2.7,6,6s-2.7,6-6,6h-25.2   c-1.4,0-2.5,1.1-2.5,2.5c0,0.3,0,0.5,0.1,0.8c1.2,3.5,2.5,6.7,3.7,9.9c3.1,7.8,5.8,14.5,4.8,19.9c-0.9,4.5-4.4,7.1-7.3,7.1l0,0   c-1.9,0-3.1-1.1-3.5-3.4c-1.8-9.4-15.2-26.3-15.8-27c-0.1-0.1-0.1-0.1-0.2-0.2c-0.5-0.5-0.9-1-1.3-1.5c-4.2-4.9-8.8-8.2-32.9-8.4   V89.6H122c4.4,0,8.8-0.7,13.1-2.1l6.5-2.1c3.4-1.1,6.9-1.6,10.4-1.6h37c3.3,0,6,2.7,6,6s-2.7,6-6,6c-1.4,0-2.5,1.1-2.5,2.5   S187.7,100.8,189,100.9L189,100.9z" data-original="#000000"/>
	<path class="st6 active-path" d="M193,22H63c-18.9,0-34.2,15.3-34.3,34.3v130.1c0,18.9,15.3,34.2,34.3,34.2h33.6c3.1,0,5.9,1.5,7.6,4.1l19,28.7   c1.1,1.6,2.9,2.6,4.8,2.6l0,0c1.9,0,3.8-1,4.8-2.6l19-28.7c1.7-2.6,4.6-4.1,7.6-4.1H193c18.9,0,34.2-15.3,34.3-34.3V56.3   C227.3,37.3,211.9,22,193,22z M222.3,186.3c0,16.1-13.1,29.2-29.3,29.3h-33.6c-4.8,0-9.2,2.4-11.8,6.4l-19,28.7   c-0.2,0.4-0.7,0.5-1.1,0.2c-0.1-0.1-0.2-0.1-0.2-0.2l-19-28.7c-2.6-4-7-6.4-11.8-6.3H63c-16.1,0-29.2-13.1-29.3-29.2V56.3   C33.7,40.1,46.8,27,63,27H193c16.1,0,29.2,13.1,29.3,29.2V186.3z" data-original="#000000"/>
	<path class="st6 active-path" d="M189,95.9h-8.9c-1.4,0-2.5,1.1-2.5,2.5s1.1,2.5,2.5,2.5h8.9c1.4,0,2.5-1.1,2.5-2.5S190.4,95.9,189,95.9z" data-original="#000000"/>
	<path class="st6 active-path" d="M189,112.9h-8.9c-1.4,0-2.5,1.1-2.5,2.5s1.1,2.5,2.5,2.5h8.9c1.4,0,2.5-1.1,2.5-2.5S190.4,112.9,189,112.9z" data-original="#000000"/>
	<path class="st6 active-path" d="M189,129.9h-8.9c-1.4,0-2.5,1.1-2.5,2.5s1.1,2.5,2.5,2.5h8.9c1.4,0,2.5-1.1,2.5-2.5S190.4,129.9,189,129.9z" data-original="#000000"/>
</g></g> </svg>