<svg id="Bold" enable-background="new 0 0 32 32" height="512" viewBox="0 0 32 32" width="512" xmlns="http://www.w3.org/2000/svg"><path d="m26 32h-20c-3.314 0-6-2.686-6-6v-20c0-3.314 2.686-6 6-6h20c3.314 0 6 2.686 6 6v20c0 3.314-2.686 6-6 6z" fill="#e3f8fa"/><path d="m11.147 16.587c-.409.803.055 1.188 1.114 1.843.9.556 2.144.759 2.942.84-.327.315 1.173-1.128-3.147 3.028-.916.878.558 2.287 1.474 1.428l2.478-2.39c.948.912 1.858 1.787 2.478 2.393.916.862 2.39-.534 1.484-1.428-.068-.065-3.358-3.221-3.157-3.028.808-.081 2.033-.297 2.923-.84l-.001-.001c1.059-.659 1.523-1.043 1.12-1.846-.243-.456-.899-.837-1.773-.178 0 0-1.179.903-3.082.903-1.902 0-3.082-.903-3.082-.903-.871-.661-1.53-.277-1.771.179z" fill="#26c6da"/><path d="m15.999 16.095c2.319 0 4.212-1.812 4.212-4.043 0-2.24-1.893-4.052-4.212-4.052s-4.212 1.812-4.212 4.052c0 2.231 1.893 4.043 4.212 4.043zm0-6.042c1.14 0 2.069.894 2.069 1.999 0 1.096-.929 1.99-2.069 1.99s-2.069-.894-2.069-1.99c0-1.106.929-1.999 2.069-1.999z" fill="#8ce1eb"/></svg>