<svg id="Bold" enable-background="new 0 0 32 32" height="512" viewBox="0 0 32 32" width="512" xmlns="http://www.w3.org/2000/svg"><path d="m26 32h-20c-3.314 0-6-2.686-6-6v-20c0-3.314 2.686-6 6-6h20c3.314 0 6 2.686 6 6v20c0 3.314-2.686 6-6 6z" fill="#ffe6e2"/><path d="m16.217 8c-4.385.001-6.717 2.811-6.717 5.875 0 1.421.794 3.193 2.066 3.755.363.163.315-.036.627-1.229.025-.099.012-.185-.068-.278-1.818-2.102-.355-6.423 3.834-6.423 6.062 0 4.93 8.388 1.055 8.388-.999 0-1.743-.784-1.507-1.754.285-1.155.844-2.397.844-3.23 0-2.099-3.126-1.787-3.126.993 0 .859.304 1.439.304 1.439s-1.006 4.064-1.193 4.823c-.316 1.285.043 3.366.074 3.545.019.099.13.13.192.049.099-.13 1.315-1.865 1.656-3.119.124-.457.633-2.31.633-2.31.335.605 1.302 1.112 2.332 1.112 3.064 0 5.279-2.693 5.279-6.035-.013-3.204-2.756-5.601-6.285-5.601z" fill="#fc573b"/></svg>