<svg id="Bold" enable-background="new 0 0 32 32" height="512" viewBox="0 0 32 32" width="512" xmlns="http://www.w3.org/2000/svg"><path d="m26 32h-20c-3.314 0-6-2.686-6-6v-20c0-3.314 2.686-6 6-6h20c3.314 0 6 2.686 6 6v20c0 3.314-2.686 6-6 6z" fill="#f5e6fe"/><path d="m22.356 12.742c.651-.462 1.198-1.039 1.644-1.703v-.001c-.595.261-1.229.434-1.89.518.68-.406 1.199-1.044 1.443-1.813-.634.378-1.334.645-2.08.794-.602-.64-1.46-1.037-2.396-1.037-1.816 0-3.278 1.474-3.278 3.281 0 .26.022.51.076.748-2.727-.133-5.14-1.44-6.761-3.431-.283.491-.449 1.053-.449 1.658 0 1.136.585 2.143 1.457 2.726-.527-.01-1.044-.163-1.482-.404v.036c0 1.594 1.137 2.918 2.628 3.223-.267.073-.558.108-.86.108-.21 0-.422-.012-.621-.056.425 1.299 1.631 2.254 3.065 2.285-1.116.873-2.533 1.399-4.067 1.399-.269 0-.527-.012-.785-.045 1.453.937 3.175 1.472 5.032 1.472 5.788 0 9.561-4.829 9.324-9.758z" fill="#be63f9"/></svg>