<svg id="Bold" enable-background="new 0 0 32 32" height="512" viewBox="0 0 32 32" width="512" xmlns="http://www.w3.org/2000/svg"><path d="m26 32h-20c-3.314 0-6-2.686-6-6v-20c0-3.314 2.686-6 6-6h20c3.314 0 6 2.686 6 6v20c0 3.314-2.686 6-6 6z" fill="#f5e6fe"/><path d="m21.277 16.685c-.259-.327-.184-.472 0-.764.003-.003 2.139-2.954 2.358-3.955l.001-.001c.11-.365 0-.633-.529-.633h-1.75c-.445 0-.651.23-.76.487 0 0-.891 2.132-2.151 3.514-.407.399-.594.528-.817.528-.11 0-.279-.128-.279-.493v-3.403c0-.437-.125-.633-.493-.633h-2.751c-.279 0-.445.204-.445.394 0 .414.63.51.695 1.677v2.532c0 .554-.101.656-.324.656-.594 0-2.038-2.141-2.893-4.59-.172-.475-.342-.668-.79-.668h-1.749c-.499 0-.6.23-.6.487 0 .455.594 2.715 2.765 5.702 1.447 2.039 3.484 3.144 5.337 3.144 1.114 0 1.25-.245 1.25-.668 0-1.948-.101-2.132.457-2.132.259 0 .704.128 1.744 1.111 1.188 1.167 1.384 1.689 2.049 1.689h1.75c.499 0 .752-.245.606-.729-.332-1.017-2.58-3.112-2.681-3.252z" fill="#be63f9"/></svg>